<svg xmlns="http://www.w3.org/2000/svg" viewBox="0 0 100 100">
  <defs>
    <linearGradient id="grad" x1="0%" y1="0%" x2="100%" y2="100%">
      <stop offset="0%" style="stop-color:#667eea;stop-opacity:1" />
      <stop offset="100%" style="stop-color:#764ba2;stop-opacity:1" />
    </linearGradient>
  </defs>
  
  <!-- Background circle -->
  <circle cx="50" cy="50" r="45" fill="url(#grad)" stroke="#fff" stroke-width="2"/>
  
  <!-- Light bulb -->
  <g transform="translate(50,50)">
    <!-- Bulb body -->
    <ellipse cx="0" cy="-5" rx="12" ry="15" fill="#fff" opacity="0.9"/>
    
    <!-- Bulb base -->
    <rect x="-8" y="8" width="16" height="6" rx="2" fill="#fff" opacity="0.8"/>
    <rect x="-6" y="12" width="12" height="3" rx="1" fill="#fff" opacity="0.7"/>
    
    <!-- Light rays -->
    <g stroke="#fff" stroke-width="2" stroke-linecap="round" opacity="0.6">
      <line x1="-20" y1="-5" x2="-16" y2="-5"/>
      <line x1="16" y1="-5" x2="20" y2="-5"/>
      <line x1="-14" y1="-16" x2="-11" y2="-13"/>
      <line x1="11" y1="-13" x2="14" y2="-16"/>
      <line x1="0" y1="-22" x2="0" y2="-18"/>
      <line x1="-14" y1="6" x2="-11" y2="3"/>
      <line x1="11" y1="3" x2="14" y2="6"/>
    </g>
    
    <!-- Filament -->
    <path d="M -6,-8 Q 0,-12 6,-8 Q 0,-4 -6,-8" stroke="#667eea" stroke-width="1" fill="none" opacity="0.7"/>
  </g>
</svg>
